<mxfile host="app.diagrams.net" modified="2024-06-19T13:56:34.106Z" agent="Mozilla/5.0 (Windows NT 10.0; Win64; x64) AppleWebKit/537.36 (KHTML, like Gecko) Chrome/105.0.0.0 Safari/537.36 Edg/105.0.1343.42" etag="7rU0a1a7N8ArvBh8WqO1" version="24.5.5" type="device">
  <diagram id="R2lEEEUBdFMjLlhIrx00" name="Page-1">
    <mxGraphModel dx="1194" dy="657" grid="1" gridSize="10" guides="1" tooltips="1" connect="1" arrows="1" fold="1" page="1" pageScale="1" pageWidth="850" pageHeight="1100" math="0" shadow="0" extFonts="Permanent Marker^https://fonts.googleapis.com/css?family=Permanent+Marker">
      <root>
        <mxCell id="0" />
        <mxCell id="1" parent="0" />
        <mxCell id="2Wtqaz9luzZAjHyfhM0e-2" value="pedido" style="rounded=0;whiteSpace=wrap;html=1;" vertex="1" parent="1">
          <mxGeometry x="630" y="230" width="120" height="60" as="geometry" />
        </mxCell>
        <mxCell id="2Wtqaz9luzZAjHyfhM0e-3" value="produto" style="rounded=0;whiteSpace=wrap;html=1;" vertex="1" parent="1">
          <mxGeometry x="380" y="520" width="120" height="60" as="geometry" />
        </mxCell>
        <mxCell id="2Wtqaz9luzZAjHyfhM0e-6" value="" style="ellipse;whiteSpace=wrap;html=1;aspect=fixed;" vertex="1" parent="1">
          <mxGeometry x="140" y="180" width="20" height="20" as="geometry" />
        </mxCell>
        <mxCell id="2Wtqaz9luzZAjHyfhM0e-7" style="edgeStyle=orthogonalEdgeStyle;rounded=0;orthogonalLoop=1;jettySize=auto;html=1;entryX=0.175;entryY=-0.067;entryDx=0;entryDy=0;entryPerimeter=0;" edge="1" parent="1" source="2Wtqaz9luzZAjHyfhM0e-6">
          <mxGeometry relative="1" as="geometry">
            <mxPoint x="151" y="225.98000000000002" as="targetPoint" />
          </mxGeometry>
        </mxCell>
        <mxCell id="2Wtqaz9luzZAjHyfhM0e-17" value="" style="edgeStyle=orthogonalEdgeStyle;rounded=0;orthogonalLoop=1;jettySize=auto;html=1;" edge="1" parent="1" source="2Wtqaz9luzZAjHyfhM0e-8" target="2Wtqaz9luzZAjHyfhM0e-15">
          <mxGeometry relative="1" as="geometry" />
        </mxCell>
        <mxCell id="2Wtqaz9luzZAjHyfhM0e-8" value="" style="ellipse;whiteSpace=wrap;html=1;aspect=fixed;" vertex="1" parent="1">
          <mxGeometry x="180" y="180" width="20" height="20" as="geometry" />
        </mxCell>
        <mxCell id="2Wtqaz9luzZAjHyfhM0e-9" value="" style="ellipse;whiteSpace=wrap;html=1;aspect=fixed;strokeColor=default;gradientColor=#000000;fillColor=#000000;" vertex="1" parent="1">
          <mxGeometry x="220" y="175" width="25" height="25" as="geometry" />
        </mxCell>
        <mxCell id="2Wtqaz9luzZAjHyfhM0e-11" style="edgeStyle=orthogonalEdgeStyle;rounded=0;orthogonalLoop=1;jettySize=auto;html=1;exitX=0.5;exitY=1;exitDx=0;exitDy=0;entryX=0.85;entryY=-0.067;entryDx=0;entryDy=0;entryPerimeter=0;" edge="1" parent="1" source="2Wtqaz9luzZAjHyfhM0e-9">
          <mxGeometry relative="1" as="geometry">
            <mxPoint x="232" y="225.98000000000002" as="targetPoint" />
          </mxGeometry>
        </mxCell>
        <mxCell id="2Wtqaz9luzZAjHyfhM0e-32" style="edgeStyle=orthogonalEdgeStyle;rounded=0;orthogonalLoop=1;jettySize=auto;html=1;" edge="1" parent="1" source="2Wtqaz9luzZAjHyfhM0e-15" target="2Wtqaz9luzZAjHyfhM0e-2">
          <mxGeometry relative="1" as="geometry" />
        </mxCell>
        <mxCell id="2Wtqaz9luzZAjHyfhM0e-15" value="cliente" style="rounded=1;whiteSpace=wrap;html=1;" vertex="1" parent="1">
          <mxGeometry x="130" y="230" width="120" height="60" as="geometry" />
        </mxCell>
        <mxCell id="2Wtqaz9luzZAjHyfhM0e-18" value="nome" style="text;html=1;align=center;verticalAlign=middle;resizable=0;points=[];autosize=1;strokeColor=none;fillColor=none;" vertex="1" parent="1">
          <mxGeometry x="125" y="138" width="50" height="30" as="geometry" />
        </mxCell>
        <mxCell id="2Wtqaz9luzZAjHyfhM0e-19" value="telefone" style="text;html=1;align=center;verticalAlign=middle;resizable=0;points=[];autosize=1;strokeColor=none;fillColor=none;" vertex="1" parent="1">
          <mxGeometry x="155" y="138" width="70" height="30" as="geometry" />
        </mxCell>
        <mxCell id="2Wtqaz9luzZAjHyfhM0e-20" value="email" style="text;html=1;align=center;verticalAlign=middle;resizable=0;points=[];autosize=1;strokeColor=none;fillColor=none;" vertex="1" parent="1">
          <mxGeometry x="207.5" y="138" width="50" height="30" as="geometry" />
        </mxCell>
        <mxCell id="2Wtqaz9luzZAjHyfhM0e-21" value="" style="ellipse;whiteSpace=wrap;html=1;aspect=fixed;" vertex="1" parent="1">
          <mxGeometry x="630" y="162" width="28" height="28" as="geometry" />
        </mxCell>
        <mxCell id="2Wtqaz9luzZAjHyfhM0e-22" value="" style="ellipse;whiteSpace=wrap;html=1;aspect=fixed;" vertex="1" parent="1">
          <mxGeometry x="723" y="165" width="27" height="27" as="geometry" />
        </mxCell>
        <mxCell id="2Wtqaz9luzZAjHyfhM0e-24" style="edgeStyle=orthogonalEdgeStyle;rounded=0;orthogonalLoop=1;jettySize=auto;html=1;entryX=0.117;entryY=-0.033;entryDx=0;entryDy=0;entryPerimeter=0;" edge="1" parent="1" source="2Wtqaz9luzZAjHyfhM0e-21" target="2Wtqaz9luzZAjHyfhM0e-2">
          <mxGeometry relative="1" as="geometry" />
        </mxCell>
        <mxCell id="2Wtqaz9luzZAjHyfhM0e-25" style="edgeStyle=orthogonalEdgeStyle;rounded=0;orthogonalLoop=1;jettySize=auto;html=1;entryX=0.892;entryY=0.017;entryDx=0;entryDy=0;entryPerimeter=0;" edge="1" parent="1" source="2Wtqaz9luzZAjHyfhM0e-22" target="2Wtqaz9luzZAjHyfhM0e-2">
          <mxGeometry relative="1" as="geometry" />
        </mxCell>
        <mxCell id="2Wtqaz9luzZAjHyfhM0e-27" value="data" style="text;html=1;align=center;verticalAlign=middle;resizable=0;points=[];autosize=1;strokeColor=none;fillColor=none;" vertex="1" parent="1">
          <mxGeometry x="615" y="128" width="50" height="30" as="geometry" />
        </mxCell>
        <mxCell id="2Wtqaz9luzZAjHyfhM0e-28" value="valor" style="text;html=1;align=center;verticalAlign=middle;resizable=0;points=[];autosize=1;strokeColor=none;fillColor=none;" vertex="1" parent="1">
          <mxGeometry x="705" y="128" width="50" height="30" as="geometry" />
        </mxCell>
        <mxCell id="2Wtqaz9luzZAjHyfhM0e-42" style="edgeStyle=orthogonalEdgeStyle;rounded=0;orthogonalLoop=1;jettySize=auto;html=1;entryX=0.5;entryY=0;entryDx=0;entryDy=0;" edge="1" parent="1" source="2Wtqaz9luzZAjHyfhM0e-29" target="2Wtqaz9luzZAjHyfhM0e-3">
          <mxGeometry relative="1" as="geometry" />
        </mxCell>
        <mxCell id="2Wtqaz9luzZAjHyfhM0e-29" value="" style="ellipse;whiteSpace=wrap;html=1;aspect=fixed;" vertex="1" parent="1">
          <mxGeometry x="430" y="450" width="20" height="20" as="geometry" />
        </mxCell>
        <mxCell id="2Wtqaz9luzZAjHyfhM0e-31" value="nome" style="text;html=1;align=center;verticalAlign=middle;resizable=0;points=[];autosize=1;strokeColor=none;fillColor=none;" vertex="1" parent="1">
          <mxGeometry x="415" y="420" width="50" height="30" as="geometry" />
        </mxCell>
        <mxCell id="2Wtqaz9luzZAjHyfhM0e-33" value="realiza" style="rhombus;whiteSpace=wrap;html=1;" vertex="1" parent="1">
          <mxGeometry x="400" y="220" width="80" height="80" as="geometry" />
        </mxCell>
        <mxCell id="2Wtqaz9luzZAjHyfhM0e-34" value="1" style="text;html=1;align=center;verticalAlign=middle;resizable=0;points=[];autosize=1;strokeColor=none;fillColor=none;" vertex="1" parent="1">
          <mxGeometry x="245" y="268" width="30" height="30" as="geometry" />
        </mxCell>
        <mxCell id="2Wtqaz9luzZAjHyfhM0e-35" value="n" style="text;html=1;align=center;verticalAlign=middle;resizable=0;points=[];autosize=1;strokeColor=none;fillColor=none;" vertex="1" parent="1">
          <mxGeometry x="600" y="270" width="30" height="30" as="geometry" />
        </mxCell>
        <mxCell id="2Wtqaz9luzZAjHyfhM0e-37" value="" style="endArrow=classic;startArrow=classic;html=1;rounded=0;exitX=1;exitY=0;exitDx=0;exitDy=0;entryX=0.367;entryY=-0.039;entryDx=0;entryDy=0;entryPerimeter=0;" edge="1" parent="1" source="2Wtqaz9luzZAjHyfhM0e-3" target="2Wtqaz9luzZAjHyfhM0e-39">
          <mxGeometry width="50" height="50" relative="1" as="geometry">
            <mxPoint x="390" y="420" as="sourcePoint" />
            <mxPoint x="680" y="300" as="targetPoint" />
            <Array as="points" />
          </mxGeometry>
        </mxCell>
        <mxCell id="2Wtqaz9luzZAjHyfhM0e-38" value="contÃ©m" style="rhombus;whiteSpace=wrap;html=1;" vertex="1" parent="1">
          <mxGeometry x="550" y="370" width="80" height="80" as="geometry" />
        </mxCell>
        <mxCell id="2Wtqaz9luzZAjHyfhM0e-39" value="n" style="text;html=1;align=center;verticalAlign=middle;resizable=0;points=[];autosize=1;strokeColor=none;fillColor=none;" vertex="1" parent="1">
          <mxGeometry x="675" y="290" width="30" height="30" as="geometry" />
        </mxCell>
        <mxCell id="2Wtqaz9luzZAjHyfhM0e-40" value="n" style="text;html=1;align=center;verticalAlign=middle;resizable=0;points=[];autosize=1;strokeColor=none;fillColor=none;" vertex="1" parent="1">
          <mxGeometry x="495" y="518" width="30" height="30" as="geometry" />
        </mxCell>
      </root>
    </mxGraphModel>
  </diagram>
</mxfile>
